#!OML:ASF Y:\EmotionMaleHayes\Project 1\Capture day 1\Session 1\Male1.ASF
:FULLY-SPECIFIED
:DEGREES
152
root -30.5887 17.0575 1.78361 72.0424 85.1254 73.0055
lowerback 1.92797 1.24006 -6.69162
upperback 0.890863 1.57003 -1.68672
thorax -0.292893 0.790874 1.97491
lowerneck -28.5716 1.88734 4.60284
upperneck 28.7631 0.924788 -0.327171
head 14.7835 0.956664 -0.692836
rclavicle -9.30561e-015 -3.99557e-014
rhumerus 38.913 14.0156 -48.039
rradius 36.0944
rwrist 3.99818
rhand -1.06135 -22.935
rfingers 7.12502
rthumb 24.5734 -51.3779
lclavicle -9.30561e-015 -3.99557e-014
lhumerus 38.7051 -15.6723 41.9936
lradius 35.7252
lwrist -1.79513
lhand 0.90581 -28.6571
lfingers 7.12502
lthumb 26.4577 -0.483938
rfemur 9.27253 -4.03915 8.89421
rtibia 2.28596
rfoot -15.2451 -1.01965
rtoes 7.44003
lfemur 11.2069 -2.11913 -21.4623
ltibia -0.156463
lfoot -13.4009 14.0811
ltoes -15.8476
153
root -30.5827 17.0589 1.7802 72.0419 85.0837 72.9941
lowerback 1.96729 1.26295 -6.71369
upperback 0.795333 1.59124 -1.70668
thorax -0.415386 0.806785 1.96371
lowerneck -28.7004 1.84256 4.68628
upperneck 29.2411 0.885535 -0.494967
head 15.0256 0.937227 -0.783582
rclavicle 1.88783e-014 -2.22639e-014
rhumerus 38.7711 14.165 -47.8949
rradius 36.196
rwrist 3.91709
rhand -0.829333 -23.0856
rfingers 7.12502
rthumb 24.7958 -51.4981
lclavicle 1.88783e-014 -2.22639e-014
lhumerus 38.6441 -15.441 42.5677
lradius 35.2759
lwrist -2.76239
lhand 0.60937 -29.9813
lfingers 7.12502
lthumb 26.1739 -1.76573
rfemur 9.30457 -3.80809 8.9189
rtibia 2.21031
rfoot -15.2327 -1.19702
rtoes 8.34783
lfemur 11.1401 -1.71268 -21.3885
ltibia -0.0381236
lfoot -13.2474 13.776
ltoes -17.2584
154
root -30.5791 17.0601 1.77881 72.4139 85.0688 73.3767
lowerback 1.82929 1.22102 -6.76191
upperback 0.860207 1.55024 -1.67916
thorax -0.269475 0.780674 2.02412
lowerneck -28.9806 1.9019 4.73445
upperneck 29.4926 0.957578 -0.55996
head 15.2023 0.96797 -0.802796
rclavicle 8.88319e-015 2.18663e-015
rhumerus 38.8947 14.2016 -47.8169
rradius 36.2698
rwrist 4.13601
rhand -0.58748 -23.1132
rfingers 7.12502
rthumb 25.0276 -51.4936
lclavicle 8.88319e-015 2.18663e-015
lhumerus 38.6408 -14.6599 43.5308
lradius 34.6894
lwrist -4.18317
lhand 0.717651 -30.9594
lfingers 7.12502
lthumb 26.2776 -2.75922
rfemur 9.3864 -3.55359 8.9754
rtibia 2.07151
rfoot -15.2133 -1.48988
rtoes 8.3971
lfemur 11.2416 -1.99064 -21.5372
ltibia -0.190092
lfoot -13.1807 14.0911
ltoes -17.5859
155
root -30.5762 17.0588 1.78002 71.877 85.0917 72.8043
lowerback 1.72037 1.21441 -6.80324
upperback 0.865653 1.54942 -1.61186
thorax -0.205602 0.77749 2.11896
lowerneck -29.0357 1.90834 4.61782
upperneck 29.5583 0.985443 -0.461909
head 15.2435 0.982634 -0.735661
rclavicle -8.46698e-015 -6.95746e-015
rhumerus 39.0327 14.2864 -47.686
rradius 36.2706
rwrist 4.22632
rhand -0.341128 -23.0687
rfingers 7.12502
rthumb 25.2636 -51.416
lclavicle -8.46698e-015 -6.95746e-015
lhumerus 38.6519 -14.2977 43.9574
lradius 34.433
lwrist -4.8146
lhand 1.08377 -31.3137
lfingers 7.12502
lthumb 26.628 -3.16627
rfemur 9.37662 -3.42924 9.06232
rtibia 2.00678
rfoot -15.184 -1.54173
rtoes 8.16553
lfemur 11.3296 -2.41768 -21.6403
ltibia -0.373631
lfoot -13.3348 14.4505
ltoes -16.1491
156
root -30.5737 17.0579 1.78247 71.2169 85.2044 72.0774
lowerback 1.67321 1.22931 -6.70212
upperback 0.808435 1.57033 -1.58202
thorax -0.238458 0.789548 2.09323
lowerneck -29.0566 1.88759 4.58518
upperneck 29.6811 0.94594 -0.38442
head 15.3028 0.978206 -0.705288
rclavicle -2.86374e-015 5.36719e-015
rhumerus 39.0608 14.318 -47.6469
rradius 36.2007
rwrist 4.33498
rhand -0.257977 -23.0074
rfingers 7.12502
rthumb 25.3433 -51.3434
lclavicle -2.86374e-015 5.36719e-015
lhumerus 38.7297 -14.4158 43.7957
lradius 34.4381
lwrist -4.71138
lhand 1.60392 -31.3442
lfingers 7.12502
lthumb 27.1257 -3.27335
rfemur 9.32922 -3.24994 9.29134
rtibia 1.94804
rfoot -15.2481 -1.68858
rtoes 8.19225
lfemur 11.2979 -2.49036 -21.4749
ltibia -0.413686
lfoot -13.4147 14.4652
ltoes -14.9117
157
root -30.5718 17.0586 1.78257 70.6205 85.3076 71.4755
lowerback 1.78167 1.24173 -6.52686
upperback 0.703018 1.57371 -1.59638
thorax -0.403676 0.797856 1.97687
lowerneck -29.0522 1.85558 4.58924
upperneck 29.8552 0.885541 -0.332646
head 15.3805 0.967374 -0.696203
rclavicle -6.64065e-015 2.92213e-014
rhumerus 38.9516 14.4215 -47.6804
rradius 36.1773
rwrist 4.47571
rhand -0.391095 -23.0628
rfingers 7.12502
rthumb 25.2157 -51.4168
lclavicle -6.64065e-015 2.92213e-014
lhumerus 38.7602 -14.8772 43.1948
lradius 34.8298
lwrist -3.81804
lhand 2.40754 -30.3725
lfingers 7.12502
lthumb 27.8943 -2.42392
rfemur 9.31534 -3.15326 9.46984
rtibia 1.96234
rfoot -15.3479 -1.76986
rtoes 8.20184
lfemur 11.2959 -2.40927 -21.2975
ltibia -0.4108
lfoot -13.2884 14.4331
ltoes -14.7034
158
root -30.5701 17.0591 1.78032 70.5987 85.2449 71.479
lowerback 1.78512 1.2503 -6.56519
upperback 0.699278 1.58415 -1.59915
thorax -0.411225 0.803412 1.99492
lowerneck -29.0458 1.8095 4.49126
upperneck 29.9175 0.849811 -0.282312
head 15.4057 0.950668 -0.665836
rclavicle 8.32411e-016 -1.59028e-014
rhumerus 38.9585 14.5493 -47.5036
rradius 36.2379
rwrist 4.49056
rhand -0.480501 -23.1543
rfingers 7.12502
rthumb 25.1301 -51.5204
lclavicle 8.32411e-016 -1.59028e-014
lhumerus 38.8649 -15.4191 42.3794
lradius 35.6334
lwrist -2.35036
lhand 3.47947 -27.8317
lfingers 7.12502
lthumb 28.9186 -0.0539466
rfemur 9.30937 -3.08633 9.417
rtibia 2.05362
rfoot -15.3434 -1.80343
rtoes 7.9444
lfemur 11.2901 -2.28912 -21.3454
ltibia -0.354835
lfoot -13.187 14.3632
ltoes -15.5438
159
root -30.5674 17.0588 1.78088 71.1564 85.1023 72.0236
lowerback 1.71273 1.26161 -6.7312
upperback 0.710777 1.60476 -1.64095
thorax -0.363454 0.812653 2.04551
lowerneck -29.0948 1.78587 4.47774
upperneck 29.9909 0.808314 -0.249353
head 15.4488 0.938936 -0.657973
rclavicle 1.66172e-014 -3.77691e-015
rhumerus 39.0004 14.5934 -47.3792
rradius 36.2475
rwrist 4.53501
rhand -0.393267 -23.08
rfingers 7.12502
rthumb 25.2136 -51.4343
lclavicle 1.66172e-014 -3.77691e-015
lhumerus 38.9937 -15.5905 42.0411
lradius 35.8144
lwrist -2.25838
lhand 3.58574 -27.652
lfingers 7.12502
lthumb 29.0201 0.108271
rfemur 9.27804 -3.12548 9.2129
rtibia 2.13332
rfoot -15.2988 -1.82098
rtoes 7.90226
lfemur 11.1382 -1.90241 -21.3908
ltibia -0.0969961
lfoot -13.2164 14.0308
ltoes -17.0341
160
root -30.5639 17.0577 1.78126 71.6434 84.9829 72.4901
lowerback 1.54396 1.23977 -6.9231
upperback 0.770605 1.59198 -1.63679
thorax -0.210797 0.800648 2.16164
lowerneck -29.1451 1.81152 4.46373
upperneck 30.0162 0.841346 -0.227362
head 15.4722 0.954727 -0.638963
rclavicle 4.30493e-015 -9.14409e-015
rhumerus 39.1991 14.6257 -47.2755
rradius 36.167
rwrist 4.63736
rhand -0.328722 -22.9659
rfingers 7.12502
rthumb 25.2755 -51.3115
lclavicle 4.30493e-015 -9.14409e-015
lhumerus 39.0674 -15.5063 41.9515
lradius 35.8205
lwrist -2.49227
lhand 3.71801 -27.6764
lfingers 7.12502
lthumb 29.1464 0.0620879
rfemur 9.2508 -3.0654 9.04284
rtibia 2.07299
rfoot -15.2189 -1.76288
rtoes 9.63998
lfemur 11.0181 -1.57942 -21.4321
ltibia 0.104207
lfoot -13.2912 13.736
ltoes -17.575
161
root -30.5609 17.0571 1.78008 71.7842 84.9948 72.6557
lowerback 1.60096 1.23357 -6.8671
upperback 0.720707 1.57667 -1.66182
thorax -0.290871 0.796569 2.10305
lowerneck -29.1414 1.8108 4.5064
upperneck 30.1283 0.824614 -0.22819
head 15.5237 0.956522 -0.649544
rclavicle 5.18704e-015 7.95139e-015
rhumerus 39.1742 14.7538 -47.2161
rradius 36.1474
rwrist 4.6078
rhand -0.375452 -22.904
rfingers 7.12502
rthumb 25.2307 -51.256
lclavicle 5.18704e-015 7.95139e-015
lhumerus 39.0503 -15.6566 41.7269
lradius 35.9367
lwrist -2.36383
lhand 4.02116 -27.4718
lfingers 7.12502
lthumb 29.4359 0.216129
rfemur 9.26265 -3.11531 9.07003
rtibia 2.23871
rfoot -15.307 -1.92724
rtoes 7.9331
lfemur 11.1525 -1.91108 -21.5562
ltibia -0.0609605
lfoot -13.3636 14.0306
ltoes -16.7763
162
root -30.5566 17.0567 1.77845 71.7789 85.0012 72.7154
lowerback 1.48285 1.22805 -6.8983
upperback 0.813453 1.5844 -1.62305
thorax -0.131338 0.79356 2.16423
lowerneck -29.1737 1.80658 4.50035
upperneck 30.1165 0.825588 -0.249133
head 15.525 0.952121 -0.657272
rclavicle -1.04859e-014 2.68359e-014
rhumerus 39.3015 14.8742 -46.8589
rradius 36.2601
rwrist 4.41102
rhand -0.431067 -23.0308
rfingers 7.12502
rthumb 25.1774 -51.3903
lclavicle -1.04859e-014 2.68359e-014
lhumerus 39.1311 -15.5803 41.7369
lradius 36.0115
lwrist -2.23422
lhand 4.43516 -27.2255
lfingers 7.12502
lthumb 29.8311 0.392215
rfemur 9.35627 -3.16109 9.05647
rtibia 2.24288
rfoot -15.3477 -1.92677
rtoes 7.38374
lfemur 11.3285 -2.2371 -21.6929
ltibia -0.202458
lfoot -13.4057 14.3381
ltoes -16.1633
